<svg xmlns="http://www.w3.org/2000/svg" width="156.925" height="36.003" viewBox="0 0 156.925 36.003">
  <g id="Group_425" data-name="Group 425" transform="translate(-108.975 -10.941)">
    <path id="Path_12323" data-name="Path 12323" d="M207.405,20.926H200.31a2.059,2.059,0,0,0-2.059,2.059V46.229a2.059,2.059,0,0,0,2.059,2.059h7.095a2.059,2.059,0,0,0,2.059-2.059V22.985a2.059,2.059,0,0,0-2.059-2.059m-2.059,11.063h-2.976V25.044h2.976Zm0,5.753V44.17h-2.976V36.108h2.976v1.634Z" transform="translate(-47.665 -5.331)" fill="#333"/>
    <path id="Path_12324" data-name="Path 12324" d="M245.985,31.823V20.472a3.777,3.777,0,0,0-3.773-3.773h-4.023V13.093h0a2.057,2.057,0,0,0-4.113,0h0V16.7h-4.024a3.777,3.777,0,0,0-3.773,3.773v11.7a3.777,3.777,0,0,0,3.773,3.773h3.67a8.575,8.575,0,0,1-5.793,6.931,2.056,2.056,0,0,0,.406,4.072,2.085,2.085,0,0,0,.352-.035l.013.042c6-1.78,8.387-6.387,9.171-11.01h4.346c.05,0,.1-.006.148-.007h1.091a4.114,4.114,0,0,0,4.114-4.114Zm-15.593,0V20.817h3.678V31.443q0,.189,0,.383Zm11.474,0h-3.5l-.029,0h-.146c0-.138,0-.277,0-.413v-10.6h3.678Z" transform="translate(-62.627 -0.051)" fill="#333"/>
    <path id="Path_12325" data-name="Path 12325" d="M261.42,75.525c-2.052-2.84-6.182-3.4-8.118-3.618l4.247,6.423h0c.01.014.017.029.026.044a2.4,2.4,0,1,0,3.844-2.847" transform="translate(-77.057 -32.55)" fill="#333"/>
    <path id="Path_12326" data-name="Path 12326" d="M177.661,43.148a2.777,2.777,0,0,0-.132-.264c-1.763-3.651-6.356-5.121-8.517-5.764l3.539,8.175h0c.007.018.013.037.021.055a2.772,2.772,0,1,0,5.087-2.2" transform="translate(-32.054 -13.977)" fill="#333"/>
    <path id="Path_12327" data-name="Path 12327" d="M108.977,46.247a2.782,2.782,0,0,1,.025-.294c.291-4.044,4.017-7.1,5.789-8.5l-.272,8.905h0c0,.02,0,.039,0,.059a2.772,2.772,0,1,1-5.54-.169" transform="translate(0 -14.154)" fill="#333"/>
    <path id="Path_12328" data-name="Path 12328" d="M146.255,17.664a2.759,2.759,0,0,0-.286-.071c-3.921-1.032-8.022,1.5-9.916,2.729l8.515,2.622v0c.019.007.036.014.055.021a2.772,2.772,0,0,0,1.631-5.3" transform="translate(-14.457 -3.422)" fill="#333"/>
    <path id="Path_12329" data-name="Path 12329" d="M144.621,46.3v4.672a2.671,2.671,0,0,1-2.671,2.671h-8.019a2.671,2.671,0,0,1-2.671-2.671V34.37a2.119,2.119,0,0,0-1.856-2.138,2.06,2.06,0,0,0-2.262,2.05V50.974a6.79,6.79,0,0,0,6.79,6.79h8.019a6.79,6.79,0,0,0,6.79-6.79V47.393Z" transform="translate(-9.699 -11.362)" fill="#333"/>
    <path id="Path_12330" data-name="Path 12330" d="M295.077,37.213A38.921,38.921,0,0,0,298.109,23.9h-4.122a36.269,36.269,0,0,1-2.158,10.341l-3.308-3.028,2.375-9.057h4.681a4.118,4.118,0,0,0,4.118-4.118h-7.719l1.157-4.41a2.059,2.059,0,0,0-3.98-1.058l-1.435,5.467H284.1a2.059,2.059,0,1,0,0,4.118h2.539l-2.416,9.2a2.058,2.058,0,0,0,.6,2.048l5.17,4.732a18.206,18.206,0,0,1-4.341,5.141l.007.009a2.048,2.048,0,1,0,2.549,3.2l.007.009a22,22,0,0,0,4.881-5.523l3.78,3.46a2.059,2.059,0,1,0,2.781-3.038Z" transform="translate(-92.399 -0.052)" fill="#333"/>
    <path id="Path_12331" data-name="Path 12331" d="M331.215,31.7V29.218l5.543-8.677a2.059,2.059,0,0,0-1.735-3.168H322.268a2.059,2.059,0,1,0,0,4.118h9l-3.843,6.016a2.06,2.06,0,0,0-.324,1.109V31.7h-6.9a2.119,2.119,0,0,0-2.138,1.857,2.06,2.06,0,0,0,2.049,2.261H327.1v4.358c0,.058,0,.12.007.178.084,1,.045,4.123-1.2,5.361a1.891,1.891,0,0,1-1.675.487,2.059,2.059,0,0,0-.357,4.1q.336.029.663.029a5.887,5.887,0,0,0,4.287-1.714c2.692-2.7,2.461-7.6,2.39-8.529V35.822h3.144a4.118,4.118,0,0,0,4.118-4.118Z" transform="translate(-111.628 -3.434)" fill="#333"/>
    <path id="Path_12332" data-name="Path 12332" d="M403.99,33.675V31.892h0a3.24,3.24,0,0,0-3.238-3.171H390.734V27.179h10.014a3.242,3.242,0,0,0,3.242-3.242V22.044h0a3.241,3.241,0,0,0-3.241-3.23H390.734V17.272h11.4a3.242,3.242,0,0,0,3.242-3.242v-.169H390.734v-.823h-.006c0-.014,0-.027,0-.04a2.057,2.057,0,1,0-4.114,0c0,.014,0,.027,0,.04h-.006v.823H373.838c-.012,0-.022,0-.034,0a1.7,1.7,0,1,0,0,3.408v.007h12.811v1.543h-9.569a3.239,3.239,0,0,0-3.233,3.072H373.8v2.05a3.242,3.242,0,0,0,3.242,3.242h9.569v1.542H375.047l-.027,0a1.7,1.7,0,1,0,0,3.408v.006h11.6v1.543H373.663a1.7,1.7,0,0,0,0,3.408h12.953v1.543h-11.6v.006a1.7,1.7,0,0,0,0,3.4v.006h11.6v1.5h-4.21a1.7,1.7,0,0,0,0,3.408h5.085a3.242,3.242,0,0,0,3.242-3.237h0V42.039h10.014a3.241,3.241,0,0,0,3.241-3.218h0V38.8h0V36.95a3.242,3.242,0,0,0,2.32-3.107v-.169Zm-3.411-9.907h-9.845V22.226h9.845Zm-23.363-1.542h9.4v1.542h-9.4Zm13.519,9.906h9.845v1.542h-9.845Zm0,4.953h9.845v1.542h-9.845Z" transform="translate(-140.409)" fill="#333"/>
  </g>
</svg>
